<svg width="104" height="78" viewBox="0 0 104 78" fill="none" xmlns="http://www.w3.org/2000/svg">
<path d="M103.043 7.94556C100.334 6.62367 85.0072 0.0307617 49.2643 0.0307617C16.8035 0.0307617 1.53147 5.43605 0.897417 5.66579C0.307189 5.88021 -0.049823 6.36061 0.00317193 6.86898C2.61336 31.8617 26.3951 63.6564 46.9695 77.6718C47.2585 77.8689 47.6209 77.9692 47.9849 77.9692C48.2791 77.9692 48.5735 77.9039 48.8323 77.7709C60.6005 71.7356 71.3163 62.2703 83.5779 47.0809C94.2658 33.8409 103.775 14.7452 103.775 8.97836C103.775 8.55792 103.498 8.16715 103.043 7.94556ZM91.4213 6.66843C84.9629 6.11153 76.6672 5.55354 69.3484 5.55354H68.2393C53.8062 5.54235 41.3653 5.54405 21.4756 13.0017C21.0973 13.1436 20.8075 13.4001 20.6744 13.7124C20.5413 14.0255 20.5752 14.3669 20.7681 14.6591C32.9919 33.1492 47.2185 45.9054 50.765 48.9537C49.165 50.9427 47.4531 52.9302 45.6144 54.8822C27.5647 44.242 10.7115 19.9911 3.61017 7.43476C8.01177 6.15178 22.9463 2.46316 49.2643 2.46316C69.7319 2.46317 83.2301 4.62557 91.4213 6.66843ZM52.459 46.7987C49.0835 43.8477 39.9334 35.4422 30.5258 23.3012C36.0691 22.331 51.194 19.9594 67.9012 19.6656C66.3109 23.7103 61.4147 35.0658 52.459 46.7987ZM4.62651 14.8091C13.368 28.5786 28.7543 48.5493 45.0446 57.5653C45.3155 57.7149 45.6273 57.7873 45.9359 57.7873C46.4051 57.7873 46.8674 57.6211 47.1715 57.3069C62.1761 41.8116 69.5714 23.7972 71.1515 19.6339C71.19 19.6339 71.2285 19.6331 71.2672 19.6331C76.5331 19.6331 79.8615 19.9545 81.5418 20.1778C80.7846 23.8109 77.8141 35.7906 69.6534 47.4515C61.4114 59.2278 50.944 71.2779 47.7156 74.9318C30.1025 62.3752 10.5068 37.0599 4.62651 14.8091ZM80.9602 45.7792C71.6086 57.363 63.2155 65.5217 54.5879 71.3238C59.3352 65.7481 66.4232 57.1192 72.3696 48.6224C82.3756 34.325 84.734 19.9734 84.8293 19.3695C84.924 18.775 84.4519 18.2151 83.7172 18.0505C83.5627 18.0155 79.829 17.2007 71.2672 17.2007C51.8432 17.2007 33.7958 20.2091 28.8547 21.1046C27.3152 19.0488 25.7778 16.9018 24.2668 14.6597C42.6849 7.97767 54.5273 7.9587 68.2377 7.98594H69.3484C81.3254 7.98594 96.0142 9.51045 100.571 10.0178C99.5573 16.0438 90.9968 33.345 80.9602 45.7792Z" fill="white" fill-opacity="0.99"/>
</svg>
