<svg width="62" height="46" viewBox="0 0 62 46" fill="none" xmlns="http://www.w3.org/2000/svg">
<path d="M61.3182 4.67139C59.7191 3.8912 50.6732 0 29.5774 0C10.4188 0 1.40508 3.19025 1.03085 3.32585C0.682495 3.4524 0.471783 3.73593 0.503061 4.03598C2.04362 18.7869 16.0798 37.5524 28.223 45.8244C28.3936 45.9408 28.6075 46 28.8223 46C28.996 46 29.1697 45.9615 29.3225 45.8829C36.2682 42.3208 42.5927 36.7343 49.8296 27.7694C56.1377 19.9551 61.75 8.68461 61.75 5.28095C61.75 5.03281 61.5866 4.80217 61.3182 4.67139ZM54.4589 3.91761C50.6471 3.58892 45.7508 3.25959 41.4313 3.25959H40.7766C32.2581 3.25299 24.9153 3.25399 13.1763 7.65555C12.953 7.73932 12.782 7.89071 12.7034 8.07504C12.6248 8.25981 12.6449 8.4613 12.7587 8.63379C19.9733 19.5468 28.37 27.0756 30.4632 28.8748C29.5188 30.0487 28.5084 31.2217 27.4232 32.3738C16.7701 26.0939 6.82322 11.7808 2.63195 4.3699C5.22981 3.61268 14.0443 1.43563 29.5774 1.43563C41.6576 1.43563 49.6243 2.7119 54.4589 3.91761ZM31.463 27.6029C29.4707 25.8612 24.0702 20.9001 18.5178 13.7344C21.7895 13.1618 30.7163 11.7621 40.5771 11.5887C39.6385 13.9759 36.7487 20.678 31.463 27.6029ZM3.2318 8.72229C8.39113 16.8492 17.4722 28.6361 27.0869 33.9574C27.2468 34.0457 27.4308 34.0885 27.613 34.0885C27.8899 34.0885 28.1627 33.9903 28.3423 33.8049C37.1981 24.6594 41.5629 14.0272 42.4954 11.5699C42.5182 11.5699 42.5409 11.5695 42.5637 11.5695C45.6717 11.5695 47.6362 11.7591 48.6279 11.8909C48.181 14.0353 46.4278 21.1058 41.6112 27.9881C36.7468 34.9386 30.5688 42.0507 28.6634 44.2073C18.268 36.7963 6.70241 21.8549 3.2318 8.72229ZM48.2846 27.0011C42.7652 33.838 37.8116 38.6533 32.7195 42.0778C35.5214 38.787 39.7048 33.6941 43.2144 28.6792C49.12 20.2408 50.512 11.7703 50.5682 11.4139C50.6241 11.063 50.3454 10.7325 49.9119 10.6354C49.8207 10.6147 47.617 10.1339 42.5637 10.1339C31.0995 10.1339 20.4478 11.9095 17.5315 12.438C16.6229 11.2246 15.7155 9.95744 14.8237 8.63415C25.6942 4.69034 32.6837 4.67914 40.7757 4.69522H41.4313C48.5002 4.69522 57.1696 5.595 59.8588 5.89447C59.2608 9.45102 54.2083 19.6623 48.2846 27.0011Z" fill="white" fill-opacity="0.99"/>
</svg>
